{
	"asset":{
		"generator":"Khronos glTF Blender I/O v3.5.30",
		"version":"2.0"
	},
	"scene":0,
	"scenes":[
		{
			"name":"Scene",
			"nodes":[
				0
			]
		}
	],
	"nodes":[
		{
			"mesh":0,
			"name":"Plane",
			"scale":[
				12.480001449584961,
				12.480001449584961,
				12.480001449584961
			]
		}
	],
	"meshes":[
		{
			"name":"Plane",
			"primitives":[
				{
					"attributes":{
						"POSITION":0,
						"TEXCOORD_0":1,
						"NORMAL":2
					},
					"indices":3
				}
			]
		}
	],
	"accessors":[
		{
			"bufferView":0,
			"componentType":5126,
			"count":2704,
			"max":[
				1.03001868724823,
				0.24571071565151215,
				1.0155025720596313
			],
			"min":[
				-1.0072660446166992,
				0,
				-1.0066757202148438
			],
			"type":"VEC3"
		},
		{
			"bufferView":1,
			"componentType":5126,
			"count":2704,
			"type":"VEC2"
		},
		{
			"bufferView":2,
			"componentType":5126,
			"count":2704,
			"type":"VEC3"
		},
		{
			"bufferView":3,
			"componentType":5123,
			"count":15606,
			"type":"SCALAR"
		}
	],
	"bufferViews":[
		{
			"buffer":0,
			"byteLength":32448,
			"byteOffset":0,
			"target":34962
		},
		{
			"buffer":0,
			"byteLength":21632,
			"byteOffset":32448,
			"target":34962
		},
		{
			"buffer":0,
			"byteLength":32448,
			"byteOffset":54080,
			"target":34962
		},
		{
			"buffer":0,
			"byteLength":31212,
			"byteOffset":86528,
			"target":34963
		}
	],
	"buffers":[
		{
			"byteLength":117740,
			"uri":"data:application/octet-stream;base64,"
		}
	]
}
