{"asset":{"version":"2.0","generator":"THREE.GLTFExporter"},"scenes":[{"name":"AuxScene","nodes":[21]}],"scene":0,"nodes":[{"name":"Mesh_body002","mesh":0},{"name":"Mesh_body002_1","mesh":1},{"name":"Mesh_body002_2","mesh":2},{"name":"Mesh_body002_3","mesh":3},{"name":"Mesh_body002_4","mesh":4},{"name":"Mesh_body002_5","mesh":5},{"name":"body","extras":{"name":"body"},"children":[0,1,2,3,4,5]},{"name":"Mesh_wheel_frontLeft002","mesh":6},{"name":"Mesh_wheel_frontLeft002_1","mesh":7},{"matrix":[-1,0,0,0,0,1,0,0,0,0,1,0,-0.3499999940395355,0.30000001192092896,0.7599999904632568,1],"name":"wheel_backLeft","extras":{"name":"wheel_backLeft"},"children":[7,8]},{"name":"Mesh_wheel_frontLeft002","mesh":6},{"name":"Mesh_wheel_frontLeft002_1","mesh":7},{"matrix":[1,0,0,0,0,1,0,0,0,0,1,0,0.3499999940395355,0.30000001192092896,0.7599999904632568,1],"name":"wheel_backRight","extras":{"name":"wheel_backRight"},"children":[10,11]},{"name":"Mesh_wheel_frontLeft002","mesh":6},{"name":"Mesh_wheel_frontLeft002_1","mesh":7},{"matrix":[-1,0,0,0,0,1,0,0,0,0,1,0,-0.3499999940395355,0.30000001192092896,-0.8600000143051147,1],"name":"wheel_frontLeft","extras":{"name":"wheel_frontLeft"},"children":[13,14]},{"name":"Mesh_wheel_frontLeft002","mesh":6},{"name":"Mesh_wheel_frontLeft002_1","mesh":7},{"matrix":[1,0,0,0,0,1,0,0,0,0,1,0,0.3499999940395355,0.30000001192092896,-0.8600000143051147,1],"name":"wheel_frontRight","extras":{"name":"wheel_frontRight"},"children":[16,17]},{"name":"truck","extras":{"name":"truck"},"children":[6,9,12,15,18]},{"matrix":[-1,0,8.742277657347586e-8,0,0,1,0,0,-8.742277657347586e-8,0,-1,0,0,0,0,1],"name":"tmpParent","extras":{"name":"tmpParent"},"children":[19]},{"name":"Scene","children":[20]}],"bufferViews":[{"buffer":0,"byteOffset":0,"byteLength":18744,"target":34962,"byteStride":12},{"buffer":0,"byteOffset":18744,"byteLength":18744,"target":34962,"byteStride":12},{"buffer":0,"byteOffset":37488,"byteLength":12496,"target":34962,"byteStride":8},{"buffer":0,"byteOffset":49984,"byteLength":7920,"target":34963},{"buffer":0,"byteOffset":57904,"byteLength":4056,"target":34962,"byteStride":12},{"buffer":0,"byteOffset":61960,"byteLength":4056,"target":34962,"byteStride":12},{"buffer":0,"byteOffset":66016,"byteLength":2704,"target":34962,"byteStride":8},{"buffer":0,"byteOffset":68720,"byteLength":1704,"target":34963},{"buffer":0,"byteOffset":70424,"byteLength":96,"target":34962,"byteStride":12},{"buffer":0,"byteOffset":70520,"byteLength":96,"target":34962,"byteStride":12},{"buffer":0,"byteOffset":70616,"byteLength":64,"target":34962,"byteStride":8},{"buffer":0,"byteOffset":70680,"byteLength":48,"target":34963},{"buffer":0,"byteOffset":70728,"byteLength":144,"target":34962,"byteStride":12},{"buffer":0,"byteOffset":70872,"byteLength":144,"target":34962,"byteStride":12},{"buffer":0,"byteOffset":71016,"byteLength":96,"target":34962,"byteStride":8},{"buffer":0,"byteOffset":71112,"byteLength":48,"target":34963},{"buffer":0,"byteOffset":71160,"byteLength":360,"target":34962,"byteStride":12},{"buffer":0,"byteOffset":71520,"byteLength":360,"target":34962,"byteStride":12},{"buffer":0,"byteOffset":71880,"byteLength":240,"target":34962,"byteStride":8},{"buffer":0,"byteOffset":72120,"byteLength":120,"target":34963},{"buffer":0,"byteOffset":72240,"byteLength":96,"target":34962,"byteStride":12},{"buffer":0,"byteOffset":72336,"byteLength":96,"target":34962,"byteStride":12},{"buffer":0,"byteOffset":72432,"byteLength":64,"target":34962,"byteStride":8},{"buffer":0,"byteOffset":72496,"byteLength":48,"target":34963},{"buffer":0,"byteOffset":72544,"byteLength":4032,"target":34962,"byteStride":12},{"buffer":0,"byteOffset":76576,"byteLength":4032,"target":34962,"byteStride":12},{"buffer":0,"byteOffset":80608,"byteLength":2688,"target":34962,"byteStride":8},{"buffer":0,"byteOffset":83296,"byteLength":1992,"target":34963},{"buffer":0,"byteOffset":85288,"byteLength":4248,"target":34962,"byteStride":12},{"buffer":0,"byteOffset":89536,"byteLength":4248,"target":34962,"byteStride":12},{"buffer":0,"byteOffset":93784,"byteLength":2832,"target":34962,"byteStride":8},{"buffer":0,"byteOffset":96616,"byteLength":1416,"target":34963}],"buffers":[{"byteLength":98032,"uri":"data:application/octet-stream;base64,"}],"accessors":[{"bufferView":0,"componentType":5126,"count":1562,"max":[0.650537371635437,0.8006839156150818,1.4500000476837158],"min":[-0.6499999761581421,0.20000000298023224,-1.4500000476837158],"type":"VEC3"},{"bufferView":1,"componentType":5126,"count":1562,"max":[1,1,1],"min":[-1,-1,-1],"type":"VEC3"},{"bufferView":2,"componentType":5126,"count":1562,"max":[64.96063232421875,65.96063232421875],"min":[-64.96063232421875,-48.21259689331055],"type":"VEC2"},{"bufferView":3,"componentType":5125,"count":1980,"max":[1561],"min":[0],"type":"SCALAR"},{"bufferView":4,"componentType":5126,"count":338,"max":[0.7505373954772949,1.3001954555511475,1.4500001668930054],"min":[-0.75,0.5,-1.350000023841858],"type":"VEC3"},{"bufferView":5,"componentType":5126,"count":338,"max":[1,1,1],"min":[-1,-1,-1],"type":"VEC3"},{"bufferView":6,"componentType":5126,"count":338,"max":[64.96063232421875,66.02162170410156],"min":[-64.96063232421875,-37.99159240722656],"type":"VEC2"},{"bufferView":7,"componentType":5125,"count":426,"max":[337],"min":[0],"type":"SCALAR"},{"bufferView":8,"componentType":5126,"count":8,"max":[0.550000011920929,0.6999022960662842,-1.350000023841858],"min":[-0.550000011920929,0.5,-1.350000023841858],"type":"VEC3"},{"bufferView":9,"componentType":5126,"count":8,"max":[0,0,-1],"min":[0,0,-1],"type":"VEC3"},{"bufferView":10,"componentType":5126,"count":8,"max":[21.65354347229004,-10.811023712158203],"min":[-21.65354347229004,-18.685039520263672],"type":"VEC2"},{"bufferView":11,"componentType":5125,"count":12,"max":[7],"min":[0],"type":"SCALAR"},{"bufferView":12,"componentType":5126,"count":12,"max":[0.75,0.7996580004692078,-0.5229021906852722],"min":[-0.75,0.699999988079071,-0.5229021906852722],"type":"VEC3"},{"bufferView":13,"componentType":5126,"count":12,"max":[0,0,1],"min":[0,0,1],"type":"VEC3"},{"bufferView":14,"componentType":5126,"count":12,"max":[25.584800720214844,39.49970245361328],"min":[-17.668811798095703,-25.191001892089844],"type":"VEC2"},{"bufferView":15,"componentType":5125,"count":12,"max":[11],"min":[0],"type":"SCALAR"},{"bufferView":16,"componentType":5126,"count":30,"max":[0.550000011920929,1.221836805343628,0.21297025680541992],"min":[-0.550000011920929,0.800000011920929,-0.75],"type":"VEC3"},{"bufferView":17,"componentType":5126,"count":30,"max":[0.9809349179267883,0.6192857623100281,0.9298795461654663],"min":[-0.9809349179267883,0.19433622062206268,-0.7851657271385193],"type":"VEC3"},{"bufferView":18,"componentType":5126,"count":30,"max":[17.668811798095703,-3.932973861694336],"min":[-17.668811798095703,-34.05458450317383],"type":"VEC2"},{"bufferView":19,"componentType":5125,"count":30,"max":[29],"min":[0],"type":"SCALAR"},{"bufferView":20,"componentType":5126,"count":8,"max":[0.550000011920929,0.699951171875,1.4500000476837158],"min":[-0.550000011920929,0.6000000238418579,1.4500000476837158],"type":"VEC3"},{"bufferView":21,"componentType":5126,"count":8,"max":[0,0,1],"min":[0,0,1],"type":"VEC3"},{"bufferView":22,"componentType":5126,"count":8,"max":[21.65354347229004,-14.748031616210938],"min":[-21.65354347229004,-18.685039520263672],"type":"VEC2"},{"bufferView":23,"componentType":5125,"count":12,"max":[7],"min":[0],"type":"SCALAR"},{"bufferView":24,"componentType":5126,"count":336,"max":[0.30014657974243164,0.30000001192092896,0.30000001192092896],"min":[0,-0.30000001192092896,-0.30000001192092896],"type":"VEC3"},{"bufferView":25,"componentType":5126,"count":336,"max":[1,1,1],"min":[-1,-1,-1],"type":"VEC3"},{"bufferView":26,"componentType":5126,"count":336,"max":[11.811023712158203,12.811023712158203],"min":[-11.811023712158203,-10.811023712158203],"type":"VEC2"},{"bufferView":27,"componentType":5125,"count":498,"max":[335],"min":[0],"type":"SCALAR"},{"bufferView":28,"componentType":5126,"count":354,"max":[0.29997149109840393,0.18136820197105408,0.18136820197105408],"min":[0.25,-0.18136820197105408,-0.18136820197105408],"type":"VEC3"},{"bufferView":29,"componentType":5126,"count":354,"max":[1,0.8546159863471985,0.8546159863471985],"min":[0.5168752074241638,-0.8546160459518433,-0.8546160459518433],"type":"VEC3"},{"bufferView":30,"componentType":5126,"count":354,"max":[7.874015808105469,2.9282350540161133],"min":[-6.854990005493164,-0.5416479110717773],"type":"VEC2"},{"bufferView":31,"componentType":5125,"count":354,"max":[353],"min":[0],"type":"SCALAR"}],"materials":[{"pbrMetallicRoughness":{"baseColorFactor":[0.08235294117647059,0.08235294117647059,0.08235294117647059,1],"metallicFactor":0,"roughnessFactor":1},"alphaMode":"BLEND","name":"plastic"},{"pbrMetallicRoughness":{"baseColorFactor":[0.14901960784313725,0.4588235294117647,1,1],"metallicFactor":0.7,"roughnessFactor":0.7},"alphaMode":"BLEND","name":"paintGreen"},{"pbrMetallicRoughness":{"baseColorFactor":[1,0.9725490196078431,0.9254901960784314,1],"metallicFactor":0,"roughnessFactor":1},"emissiveFactor":[1,1,1],"alphaMode":"BLEND","name":"lightFront"},{"pbrMetallicRoughness":{"baseColorFactor":[0.28627450980392155,0.28627450980392155,0.28627450980392155,1],"metallicFactor":1,"roughnessFactor":0.6029411554336548},"alphaMode":"BLEND","name":"_defaultMat"},{"pbrMetallicRoughness":{"baseColorFactor":[0.35294117647058826,0.803921568627451,0.9372549019607843,1],"metallicFactor":0,"roughnessFactor":0},"alphaMode":"BLEND","name":"window"},{"pbrMetallicRoughness":{"baseColorFactor":[1,0.34901960784313724,0.22745098039215686,1],"metallicFactor":0,"roughnessFactor":1},"emissiveFactor":[1,0.34509803921568627,0.2235294117647059],"alphaMode":"BLEND","name":"lightBack"},{"pbrMetallicRoughness":{"baseColorFactor":[0.23921568627450981,0.23921568627450981,0.23921568627450981,1],"metallicFactor":1,"roughnessFactor":1},"alphaMode":"BLEND","name":"carTire.002"},{"pbrMetallicRoughness":{"metallicFactor":1,"roughnessFactor":1},"alphaMode":"BLEND","name":"_defaultMat.002"}],"meshes":[{"primitives":[{"mode":4,"attributes":{"POSITION":0,"NORMAL":1,"TEXCOORD_0":2},"indices":3,"material":0}]},{"primitives":[{"mode":4,"attributes":{"POSITION":4,"NORMAL":5,"TEXCOORD_0":6},"indices":7,"material":1}]},{"primitives":[{"mode":4,"attributes":{"POSITION":8,"NORMAL":9,"TEXCOORD_0":10},"indices":11,"material":2}]},{"primitives":[{"mode":4,"attributes":{"POSITION":12,"NORMAL":13,"TEXCOORD_0":14},"indices":15,"material":3}]},{"primitives":[{"mode":4,"attributes":{"POSITION":16,"NORMAL":17,"TEXCOORD_0":18},"indices":19,"material":4}]},{"primitives":[{"mode":4,"attributes":{"POSITION":20,"NORMAL":21,"TEXCOORD_0":22},"indices":23,"material":5}]},{"primitives":[{"mode":4,"attributes":{"POSITION":24,"NORMAL":25,"TEXCOORD_0":26},"indices":27,"material":6}]},{"primitives":[{"mode":4,"attributes":{"POSITION":28,"NORMAL":29,"TEXCOORD_0":30},"indices":31,"material":7}]}]}