{
  "asset": {
    "generator": "Khronos glTF Blender I/O v1.5.17",
    "version": "2.0"
  },
  "buffers": [
    {
      "uri": "data:application/octet-stream;base64,",
      "byteLength": 50608
    },
    {
      "uri": "data:application/octet-stream;base64,",
      "byteLength": 24352
    }
  ],
  "bufferViews": [
    {
      "buffer": 0,
      "byteOffset": 0,
      "byteLength": 15864,
      "byteStride": 12,
      "target": 34962
    },
    {
      "buffer": 0,
      "byteOffset": 15864,
      "byteLength": 15864,
      "byteStride": 12,
      "target": 34962
    },
    {
      "buffer": 0,
      "byteOffset": 31728,
      "byteLength": 10576,
      "byteStride": 8,
      "target": 34962
    },
    {
      "buffer": 0,
      "byteOffset": 42304,
      "byteLength": 8304,
      "target": 34963
    },
    {
      "buffer": 1,
      "byteOffset": 0,
      "byteLength": 7656,
      "byteStride": 12,
      "target": 34962
    },
    {
      "buffer": 1,
      "byteOffset": 7656,
      "byteLength": 7656,
      "byteStride": 12,
      "target": 34962
    },
    {
      "buffer": 1,
      "byteOffset": 15312,
      "byteLength": 5104,
      "byteStride": 8,
      "target": 34962
    },
    {
      "buffer": 1,
      "byteOffset": 20416,
      "byteLength": 3936,
      "target": 34963
    }
  ],
  "accessors": [
    {
      "bufferView": 0,
      "byteOffset": 0,
      "componentType": 5126,
      "count": 1322,
      "min": [-0.8377318382263184, -0.8377319574356079, -0.1675845831632614],
      "max": [0.8377318382263184, 0.8377317190170288, 0.05013565719127655],
      "type": "VEC3"
    },
    {
      "bufferView": 1,
      "byteOffset": 0,
      "componentType": 5126,
      "count": 1322,
      "min": [-1, -1, -1],
      "max": [1, 1, 1],
      "type": "VEC3"
    },
    {
      "bufferView": 2,
      "byteOffset": 0,
      "componentType": 5126,
      "count": 1322,
      "min": [0.525407075881958, 0.866450309753418],
      "max": [0.7074078917503357, 0.9395709037780762],
      "type": "VEC2"
    },
    {
      "bufferView": 3,
      "byteOffset": 0,
      "componentType": 5125,
      "normalized": false,
      "count": 2076,
      "min": [0],
      "max": [1321],
      "type": "SCALAR"
    },
    {
      "bufferView": 4,
      "byteOffset": 0,
      "componentType": 5126,
      "count": 638,
      "min": [-0.7301779985427856, -3.2888283729553223, -1.4524204730987549],
      "max": [0.727860689163208, 0.956697940826416, 0.472273588180542],
      "type": "VEC3"
    },
    {
      "bufferView": 5,
      "byteOffset": 0,
      "componentType": 5126,
      "count": 638,
      "min": [-1, -1, -1],
      "max": [1, 1, 1],
      "type": "VEC3"
    },
    {
      "bufferView": 6,
      "byteOffset": 0,
      "componentType": 5126,
      "count": 638,
      "min": [0.39568984508514404, 0.008033275604248047],
      "max": [0.9678767919540405, 0.950621485710144],
      "type": "VEC2"
    },
    {
      "bufferView": 7,
      "byteOffset": 0,
      "componentType": 5125,
      "normalized": false,
      "count": 984,
      "min": [0],
      "max": [637],
      "type": "SCALAR"
    }
  ],
  "scene": 0,
  "scenes": [
    {
      "nodes": [0, 1],
      "name": "Scene"
    }
  ],
  "nodes": [
    {
      "name": "WindMill.001",
      "matrix": [
        0.4821113348007202, 0, 0, 0, 0, 0.4821113348007202, 0, 0, 0, 0, 0.4821113348007202, 0,
        0.007825613021850586, 1.900821566581726, 0.1711728870868683, 1
      ],
      "mesh": 0
    },
    {
      "name": "WindMill",
      "matrix": [
        0.4821113348007202, 0, 0, 0, 0, 0.4821113348007202, 0, 0, 0, 0, 0.4821113348007202, 0,
        0.01821589469909668, 1.564571499824524, 0.07810831815004349, 1
      ],
      "mesh": 1
    }
  ],
  "meshes": [
    {
      "primitives": [
        {
          "material": 0,
          "mode": 4,
          "attributes": {
            "POSITION": 0,
            "NORMAL": 1,
            "TEXCOORD_0": 2
          },
          "indices": 3
        }
      ]
    },
    {
      "primitives": [
        {
          "material": 0,
          "mode": 4,
          "attributes": {
            "POSITION": 4,
            "NORMAL": 5,
            "TEXCOORD_0": 6
          },
          "indices": 7
        }
      ]
    }
  ],
  "materials": [
    {
      "name": "Farm_Pack_001",
      "pbrMetallicRoughness": {
        "baseColorFactor": [1, 1, 1, 1],
        "metallicFactor": 0,
        "roughnessFactor": 0.9863636493682861,
        "baseColorTexture": {
          "index": 0,
          "texCoord": 0
        }
      },
      "emissiveFactor": [0, 0, 0],
      "alphaMode": "OPAQUE",
      "doubleSided": true
    }
  ],
  "textures": [
    {
      "sampler": 0,
      "source": 0,
      "name": "base"
    }
  ],
  "samplers": [
    {
      "magFilter": 9729,
      "minFilter": 9987,
      "wrapS": 10497,
      "wrapT": 10497
    }
  ],
  "images": [
    {
      "uri": "data:image/jpeg;base64,",
      "mimeType": "image/jpeg"
    }
  ]
}
